<svg width="211" height="55" viewBox="0 0 211 55" fill="none" xmlns="http://www.w3.org/2000/svg">
<circle cx="27.5" cy="27.5" r="27.5" fill="#1ABC9C"/>
<path d="M17.2373 36.9111C16.9242 37.1396 16.5645 37.2539 16.1582 37.2539C15.7604 37.2539 15.4388 37.1523 15.1934 36.9492C14.9564 36.7376 14.8379 36.4964 14.8379 36.2256C14.8379 35.9548 14.8802 35.7559 14.9648 35.6289C15.2103 35.7728 15.5996 35.8447 16.1328 35.8447C16.3444 35.8447 16.5771 35.7389 16.8311 35.5273C17.085 35.3073 17.2881 35.0068 17.4404 34.626V28.6719C17.4404 28.2741 17.3558 27.9779 17.1865 27.7832C16.9326 27.4785 16.501 27.1781 15.8916 26.8818C16.5094 26.5856 16.8988 26.3402 17.0596 26.1455C17.3135 25.8239 17.4404 25.4642 17.4404 25.0664L17.4531 19.5312C17.25 18.998 16.8014 18.7314 16.1074 18.7314C15.752 18.7314 15.4896 18.8034 15.3203 18.9473C15.2357 18.8372 15.1934 18.6934 15.1934 18.5156C15.1934 18.3379 15.2314 18.1771 15.3076 18.0332C15.3838 17.8893 15.4896 17.7624 15.625 17.6523C15.9128 17.4323 16.2979 17.3223 16.7803 17.3223C17.2627 17.3223 17.6605 17.4619 17.9736 17.7412C18.2529 17.4619 18.5788 17.3223 18.9512 17.3223C19.3236 17.3223 19.641 17.4788 19.9033 17.792C20.2334 17.4788 20.5254 17.3223 20.7793 17.3223C21.0332 17.3223 21.2279 17.3434 21.3633 17.3857C21.4987 17.4281 21.6341 17.5085 21.7695 17.627C22.0404 17.8385 22.3239 18.266 22.6201 18.9092L27.4824 29.002L31.4941 19.1123L31.8496 18.2871C32.0612 17.8216 32.2601 17.5465 32.4463 17.4619C32.6325 17.3688 32.8483 17.3223 33.0938 17.3223C33.3477 17.3223 33.6058 17.4154 33.8682 17.6016C34.1898 17.4154 34.6087 17.3223 35.125 17.3223C35.6497 17.3223 36.1025 17.4619 36.4834 17.7412C36.8219 17.4619 37.1732 17.3223 37.5371 17.3223C37.9095 17.3223 38.1973 17.3519 38.4004 17.4111C38.612 17.4704 38.7939 17.5508 38.9463 17.6523C39.2679 17.8809 39.4287 18.1644 39.4287 18.5029C39.4287 18.6722 39.3822 18.8203 39.2891 18.9473C39.1029 18.8034 38.8659 18.7314 38.5781 18.7314C37.9349 18.7314 37.499 19.0319 37.2705 19.6328V25.0664C37.2705 25.4811 37.3594 25.79 37.5371 25.9932C37.8164 26.3232 38.2438 26.6195 38.8193 26.8818C38.2015 27.1865 37.8079 27.4362 37.6387 27.6309C37.3932 27.9355 37.2705 28.2826 37.2705 28.6719V34.8799C37.5583 35.5231 38.0788 35.8447 38.832 35.8447C39.1198 35.8447 39.3568 35.7728 39.543 35.6289C39.6361 35.7559 39.6826 35.904 39.6826 36.0732C39.6826 36.234 39.6318 36.3864 39.5303 36.5303C39.4372 36.6742 39.306 36.7969 39.1367 36.8984C38.7474 37.1354 38.3031 37.2539 37.8037 37.2539C37.3044 37.2539 36.8389 37.1185 36.4072 36.8477C36.0094 37.1185 35.5566 37.2539 35.0488 37.2539C34.5072 37.2539 34.029 37.1185 33.6143 36.8477C33.1826 37.1185 32.7806 37.2539 32.4082 37.2539C32.0443 37.2539 31.7438 37.2201 31.5068 37.1523C31.2699 37.0931 31.0625 37.0085 30.8848 36.8984C30.5208 36.6784 30.3389 36.4033 30.3389 36.0732C30.3389 35.904 30.3854 35.7559 30.4785 35.6289C30.6647 35.7728 30.9017 35.8447 31.1895 35.8447C31.9427 35.8447 32.4632 35.5231 32.751 34.8799V21.0039L27.7998 33.2676L27.2539 34.5117C26.9915 35.1042 26.8053 35.4385 26.6953 35.5146C26.5938 35.5908 26.5091 35.6289 26.4414 35.6289C26.2298 35.6289 26.0817 35.6077 25.9971 35.5654L19.2178 22.1973V34.6133C19.3786 35.0026 19.5986 35.3073 19.8779 35.5273C20.1572 35.7389 20.4704 35.8447 20.8174 35.8447C21.1644 35.8447 21.4606 35.7728 21.7061 35.6289C21.7992 35.7812 21.8457 35.9928 21.8457 36.2637C21.8457 36.526 21.7145 36.7588 21.4521 36.9619C21.1898 37.1566 20.8512 37.2539 20.4365 37.2539C20.0218 37.2539 19.641 37.1481 19.2939 36.9365C18.9893 37.1481 18.638 37.2539 18.2402 37.2539C17.8509 37.2539 17.5166 37.1396 17.2373 36.9111ZM21.0078 21.1182C20.9232 21.2451 20.8809 21.4271 20.8809 21.6641C20.8809 22.3496 21.1686 23.2594 21.7441 24.3936L26.3652 33.623C26.4245 33.5469 26.4541 33.3861 26.4541 33.1406C26.4541 32.4043 26.1029 31.3252 25.4004 29.9033L21.0078 21.1182ZM33.9697 33.6357C34.3929 33.4749 34.6257 32.9206 34.668 31.9727C34.7188 31.0247 34.7441 29.7129 34.7441 28.0371C34.7441 26.3613 34.7399 25.2484 34.7314 24.6982C34.7314 24.1396 34.7272 23.6911 34.7188 23.3525C34.6934 22.3538 34.596 21.7529 34.4268 21.5498C34.266 21.3382 34.1136 21.1986 33.9697 21.1309V33.6357ZM19.04 33.8008C19.04 33.8685 19.0443 33.9193 19.0527 33.9531L19.04 33.8008ZM17.6182 33.8008C17.6097 33.8346 17.6055 33.8854 17.6055 33.9531L17.6182 33.8008Z" fill="#223762"/>
<path d="M106.58 18.852V37H102.94V25.196L98.078 37H95.322L90.434 25.196V37H86.794V18.852H90.928L96.7 32.346L102.472 18.852H106.58ZM116.575 37.234C115.188 37.234 113.94 36.9307 112.831 36.324C111.721 35.7 110.846 34.8247 110.205 33.698C109.581 32.5713 109.269 31.2713 109.269 29.798C109.269 28.3247 109.589 27.0247 110.231 25.898C110.889 24.7713 111.782 23.9047 112.909 23.298C114.035 22.674 115.292 22.362 116.679 22.362C118.065 22.362 119.322 22.674 120.449 23.298C121.575 23.9047 122.459 24.7713 123.101 25.898C123.759 27.0247 124.089 28.3247 124.089 29.798C124.089 31.2713 123.751 32.5713 123.075 33.698C122.416 34.8247 121.515 35.7 120.371 36.324C119.244 36.9307 117.979 37.234 116.575 37.234ZM116.575 34.062C117.233 34.062 117.849 33.906 118.421 33.594C119.01 33.2647 119.478 32.7793 119.825 32.138C120.171 31.4967 120.345 30.7167 120.345 29.798C120.345 28.4287 119.981 27.38 119.253 26.652C118.542 25.9067 117.667 25.534 116.627 25.534C115.587 25.534 114.711 25.9067 114.001 26.652C113.307 27.38 112.961 28.4287 112.961 29.798C112.961 31.1673 113.299 32.2247 113.975 32.97C114.668 33.698 115.535 34.062 116.575 34.062ZM140.539 22.596L131.621 43.812H127.747L130.867 36.636L125.095 22.596H129.177L132.895 32.658L136.665 22.596H140.539ZM156.099 22.596V37H152.433V35.18C151.965 35.804 151.35 36.298 150.587 36.662C149.842 37.0087 149.027 37.182 148.143 37.182C147.016 37.182 146.02 36.948 145.153 36.48C144.286 35.9947 143.602 35.2927 143.099 34.374C142.614 33.438 142.371 32.3287 142.371 31.046V22.596H146.011V30.526C146.011 31.67 146.297 32.554 146.869 33.178C147.441 33.7847 148.221 34.088 149.209 34.088C150.214 34.088 151.003 33.7847 151.575 33.178C152.147 32.554 152.433 31.67 152.433 30.526V22.596H156.099ZM169.526 18.852V37H165.886V18.852H169.526ZM181.104 22.388C182.82 22.388 184.207 22.934 185.264 24.026C186.321 25.1007 186.85 26.6087 186.85 28.55V37H183.21V29.044C183.21 27.9 182.924 27.0247 182.352 26.418C181.78 25.794 181 25.482 180.012 25.482C179.007 25.482 178.209 25.794 177.62 26.418C177.048 27.0247 176.762 27.9 176.762 29.044V37H173.122V22.596H176.762V24.39C177.247 23.766 177.863 23.2807 178.608 22.934C179.371 22.57 180.203 22.388 181.104 22.388ZM189.376 29.798C189.376 28.3073 189.679 27.0073 190.286 25.898C190.892 24.7713 191.733 23.9047 192.808 23.298C193.882 22.674 195.113 22.362 196.5 22.362C198.285 22.362 199.758 22.8127 200.92 23.714C202.098 24.598 202.887 25.846 203.286 27.458H199.36C199.152 26.834 198.796 26.3487 198.294 26.002C197.808 25.638 197.202 25.456 196.474 25.456C195.434 25.456 194.61 25.8373 194.004 26.6C193.397 27.3453 193.094 28.4113 193.094 29.798C193.094 31.1673 193.397 32.2333 194.004 32.996C194.61 33.7413 195.434 34.114 196.474 34.114C197.947 34.114 198.909 33.4553 199.36 32.138H203.286C202.887 33.698 202.098 34.9373 200.92 35.856C199.741 36.7747 198.268 37.234 196.5 37.234C195.113 37.234 193.882 36.9307 192.808 36.324C191.733 35.7 190.892 34.8333 190.286 33.724C189.679 32.5973 189.376 31.2887 189.376 29.798ZM207.564 37.182C206.906 37.182 206.36 36.9827 205.926 36.584C205.51 36.168 205.302 35.6567 205.302 35.05C205.302 34.4433 205.51 33.9407 205.926 33.542C206.36 33.126 206.906 32.918 207.564 32.918C208.206 32.918 208.734 33.126 209.15 33.542C209.566 33.9407 209.774 34.4433 209.774 35.05C209.774 35.6567 209.566 36.168 209.15 36.584C208.734 36.9827 208.206 37.182 207.564 37.182Z" fill="#223762"/>
</svg>
