<svg width="55" height="55" viewBox="0 0 55 55" fill="none" xmlns="http://www.w3.org/2000/svg">
<circle cx="27.5" cy="27.5" r="27.5" fill="#1ABC9C"/>
<path d="M17.2373 36.9111C16.9242 37.1396 16.5645 37.2539 16.1582 37.2539C15.7604 37.2539 15.4388 37.1523 15.1934 36.9492C14.9564 36.7376 14.8379 36.4964 14.8379 36.2256C14.8379 35.9548 14.8802 35.7559 14.9648 35.6289C15.2103 35.7728 15.5996 35.8447 16.1328 35.8447C16.3444 35.8447 16.5771 35.7389 16.8311 35.5273C17.085 35.3073 17.2881 35.0068 17.4404 34.626V28.6719C17.4404 28.2741 17.3558 27.9779 17.1865 27.7832C16.9326 27.4785 16.501 27.1781 15.8916 26.8818C16.5094 26.5856 16.8988 26.3402 17.0596 26.1455C17.3135 25.8239 17.4404 25.4642 17.4404 25.0664L17.4531 19.5312C17.25 18.998 16.8014 18.7314 16.1074 18.7314C15.752 18.7314 15.4896 18.8034 15.3203 18.9473C15.2357 18.8372 15.1934 18.6934 15.1934 18.5156C15.1934 18.3379 15.2314 18.1771 15.3076 18.0332C15.3838 17.8893 15.4896 17.7624 15.625 17.6523C15.9128 17.4323 16.2979 17.3223 16.7803 17.3223C17.2627 17.3223 17.6605 17.4619 17.9736 17.7412C18.2529 17.4619 18.5788 17.3223 18.9512 17.3223C19.3236 17.3223 19.641 17.4788 19.9033 17.792C20.2334 17.4788 20.5254 17.3223 20.7793 17.3223C21.0332 17.3223 21.2279 17.3434 21.3633 17.3857C21.4987 17.4281 21.6341 17.5085 21.7695 17.627C22.0404 17.8385 22.3239 18.266 22.6201 18.9092L27.4824 29.002L31.4941 19.1123L31.8496 18.2871C32.0612 17.8216 32.2601 17.5465 32.4463 17.4619C32.6325 17.3688 32.8483 17.3223 33.0938 17.3223C33.3477 17.3223 33.6058 17.4154 33.8682 17.6016C34.1898 17.4154 34.6087 17.3223 35.125 17.3223C35.6497 17.3223 36.1025 17.4619 36.4834 17.7412C36.8219 17.4619 37.1732 17.3223 37.5371 17.3223C37.9095 17.3223 38.1973 17.3519 38.4004 17.4111C38.612 17.4704 38.7939 17.5508 38.9463 17.6523C39.2679 17.8809 39.4287 18.1644 39.4287 18.5029C39.4287 18.6722 39.3822 18.8203 39.2891 18.9473C39.1029 18.8034 38.8659 18.7314 38.5781 18.7314C37.9349 18.7314 37.499 19.0319 37.2705 19.6328V25.0664C37.2705 25.4811 37.3594 25.79 37.5371 25.9932C37.8164 26.3232 38.2438 26.6195 38.8193 26.8818C38.2015 27.1865 37.8079 27.4362 37.6387 27.6309C37.3932 27.9355 37.2705 28.2826 37.2705 28.6719V34.8799C37.5583 35.5231 38.0788 35.8447 38.832 35.8447C39.1198 35.8447 39.3568 35.7728 39.543 35.6289C39.6361 35.7559 39.6826 35.904 39.6826 36.0732C39.6826 36.234 39.6318 36.3864 39.5303 36.5303C39.4372 36.6742 39.306 36.7969 39.1367 36.8984C38.7474 37.1354 38.3031 37.2539 37.8037 37.2539C37.3044 37.2539 36.8389 37.1185 36.4072 36.8477C36.0094 37.1185 35.5566 37.2539 35.0488 37.2539C34.5072 37.2539 34.029 37.1185 33.6143 36.8477C33.1826 37.1185 32.7806 37.2539 32.4082 37.2539C32.0443 37.2539 31.7438 37.2201 31.5068 37.1523C31.2699 37.0931 31.0625 37.0085 30.8848 36.8984C30.5208 36.6784 30.3389 36.4033 30.3389 36.0732C30.3389 35.904 30.3854 35.7559 30.4785 35.6289C30.6647 35.7728 30.9017 35.8447 31.1895 35.8447C31.9427 35.8447 32.4632 35.5231 32.751 34.8799V21.0039L27.7998 33.2676L27.2539 34.5117C26.9915 35.1042 26.8053 35.4385 26.6953 35.5146C26.5938 35.5908 26.5091 35.6289 26.4414 35.6289C26.2298 35.6289 26.0817 35.6077 25.9971 35.5654L19.2178 22.1973V34.6133C19.3786 35.0026 19.5986 35.3073 19.8779 35.5273C20.1572 35.7389 20.4704 35.8447 20.8174 35.8447C21.1644 35.8447 21.4606 35.7728 21.7061 35.6289C21.7992 35.7812 21.8457 35.9928 21.8457 36.2637C21.8457 36.526 21.7145 36.7588 21.4521 36.9619C21.1898 37.1566 20.8512 37.2539 20.4365 37.2539C20.0218 37.2539 19.641 37.1481 19.2939 36.9365C18.9893 37.1481 18.638 37.2539 18.2402 37.2539C17.8509 37.2539 17.5166 37.1396 17.2373 36.9111ZM21.0078 21.1182C20.9232 21.2451 20.8809 21.4271 20.8809 21.6641C20.8809 22.3496 21.1686 23.2594 21.7441 24.3936L26.3652 33.623C26.4245 33.5469 26.4541 33.3861 26.4541 33.1406C26.4541 32.4043 26.1029 31.3252 25.4004 29.9033L21.0078 21.1182ZM33.9697 33.6357C34.3929 33.4749 34.6257 32.9206 34.668 31.9727C34.7188 31.0247 34.7441 29.7129 34.7441 28.0371C34.7441 26.3613 34.7399 25.2484 34.7314 24.6982C34.7314 24.1396 34.7272 23.6911 34.7188 23.3525C34.6934 22.3538 34.596 21.7529 34.4268 21.5498C34.266 21.3382 34.1136 21.1986 33.9697 21.1309V33.6357ZM19.04 33.8008C19.04 33.8685 19.0443 33.9193 19.0527 33.9531L19.04 33.8008ZM17.6182 33.8008C17.6097 33.8346 17.6055 33.8854 17.6055 33.9531L17.6182 33.8008Z" fill="white"/>
</svg>
